<svg width="170" height="170" fill="none" xmlns="http://www.w3.org/2000/svg"><path d="M85.3 170a84 84 0 100-168 84 84 0 000 168z" fill="#fff"/><path d="M16.2 91.5z" fill="#000"/><path d="M159 122.7a82.8 82.8 0 10-125.3 27.1c1.8-14.7 2.8-27.7 2.3-30-2.9-13.6-11-15-5.5-39.2C42 30.8 79.2 24.3 99.3 29c15.8 3.7 27.8 16 34.8 36.6 6.8 20.6 5.3 31.3 2.7 38.2-.7 2-.6 1.9 10 9.7 4.4 3.2 8.4 6.1 12.2 9.2z" fill="url(#paint0_linear)"/><path d="M33.5 152a2 2 0 01-1.3-.5 85 85 0 11128.5-27.8c-.4.5-1 1-1.5 1-.7.2-1.3 0-1.8-.3-3.4-2.7-7-5.3-10.7-8.1l-4-3a73 73 0 01-7.4-5.6c-1.7-1.8-1.3-3.3-.9-4.6 2.2-5.8 4.3-16-2.7-36.7-6.6-19.6-18-31.7-33.2-35.3-4.8-1-21.8-4-38.7 6.6-13.6 8.5-23 23.1-27.6 43.4-3.7 15.9-1.2 21.3 1.7 27.6 1.3 2.9 2.9 6.2 3.8 10.7.7 3.3-1.3 22.5-2.2 30.6-.1.8-.6 1.4-1.4 1.7 0 .2-.3.3-.6.3zM85 4.3a80.8 80.8 0 00-53.2 141.4c1.7-14.9 2.2-24 2-25.4-1-4-2.3-7-3.6-9.8-3.1-6.7-6-13-2-30.3C33 58.7 43 43.2 57.7 34.1a56.6 56.6 0 0142-7c16.6 3.8 29.1 17 36.2 38 7.4 22 5 33 2.7 39.5v.2c.6.8 3 2.6 6.6 5.2l4 2.9 8.8 6.5A80.8 80.8 0 0085 4.2z" fill="#000"/><path d="M92.7 103.5c-2 0-4-2-6.2-6.3a77.7 77.7 0 01-5-13.9 58.6 58.6 0 01-2-17.3c.2-6.8 1.8-9 2.4-9.6.3-.3 6.1-6 16.4-4.2 10.2 1.8 10.5 7.3 10.7 10.6v.9c.7 7.4-5.6 30.7-11.8 37.4-1.6 1.7-3 2.4-4.5 2.4zM85 59.3c-.2.3-1.1 2.1-1.2 6.8-.2 5.8.5 11 1.8 16.2 3 11 6.1 16 7.3 17 1.1-.5 4.2-4.3 7.6-14.5 2.7-8.2 4.5-17 4.2-20.7v-1c-.2-2.8-.4-5.4-7.2-6.6A14.4 14.4 0 0085 59.3zm0 0s-.1.1 0 0c-.1.1 0 0 0 0zM70.8 132.6h-.1c-17.4-.7-30-6.3-37.5-16.7-8-11-8-24.8-5.6-33.3a2.2 2.2 0 012.6-1.4c1.1.3 1.8 1.4 1.5 2.6-1.7 6-2.6 19 5 29.6 6.7 9.3 18.2 14.3 34.2 15 1.1 0 2 1 2 2.2 0 1.1-1 2-2.1 2z" fill="#000"/><path d="M20.7 47.2h135.4S144 68 124.6 69.4c-11 .9-19.1-8.8-23.7-12.8-3.5-3-6.7-3.6-14.1 0-5 2.5-4.9 7.4-16.7 11.6-1.3.4-21.2 5.6-34.3-3.6-2-1.4-8-5.1-12-10.6-4-5.3-3-6.7-3-6.8z" fill="#000"/><defs><linearGradient id="paint0_linear" x1="43.8" y1="13.2" x2="120" y2="145.2" gradientUnits="userSpaceOnUse"><stop stop-color="#EF645E"/><stop offset="1" stop-color="#EB1E6F"/></linearGradient></defs></svg>