<?xml version="1.0" encoding="UTF-8" standalone="no"?>
<!DOCTYPE svg PUBLIC "-//W3C//DTD SVG 1.0//EN" "http://www.w3.org/TR/2001/PR-SVG-20010719/DTD/svg10.dtd">
<svg width="15cm" height="5cm" viewBox="619 -381 282 92" xmlns="http://www.w3.org/2000/svg" xmlns:xlink="http://www.w3.org/1999/xlink">
  <line style="fill: none; fill-opacity:0; stroke-width: 1; stroke: #808080" x1="620" y1="-300" x2="900" y2="-300"/>
  <polyline style="fill: none; fill-opacity:0; stroke-width: 1; stroke: #000000" points="640.225,-339.639 680.475,-379.889 720.975,-379.139 761.225,-339.139 800.475,-320.139 881.475,-318.639 "/>
  <line style="fill: none; fill-opacity:0; stroke-width: 1; stroke: #808080" x1="640" y1="-300" x2="640" y2="-300"/>
  <line style="fill: none; fill-opacity:0; stroke-width: 1; stroke: #808080" x1="640" y1="-300" x2="640" y2="-296"/>
  <line style="fill: none; fill-opacity:0; stroke-width: 1; stroke: #808080" x1="720" y1="-300" x2="720" y2="-296"/>
  <line style="fill: none; fill-opacity:0; stroke-width: 1; stroke: #808080" x1="680" y1="-300" x2="680" y2="-296"/>
  <line style="fill: none; fill-opacity:0; stroke-width: 1; stroke: #808080" x1="760" y1="-300" x2="760" y2="-296"/>
  <line style="fill: none; fill-opacity:0; stroke-width: 1; stroke: #808080" x1="800" y1="-300" x2="800" y2="-296"/>
  <line style="fill: none; fill-opacity:0; stroke-width: 1; stroke: #808080" x1="840" y1="-300" x2="840" y2="-296"/>
  <line style="fill: none; fill-opacity:0; stroke-width: 1; stroke: #808080" x1="880" y1="-300" x2="880" y2="-296"/>
  <text font-size="12.7998" style="fill: #000000;text-anchor:start;font-family:sans-serif;font-style:normal;font-weight:normal" x="638" y="-290">
    <tspan x="638" y="-290"></tspan>
  </text>
  <text font-size="5.64436" style="fill: #000000;text-anchor:middle;font-family:sans-serif;font-style:normal;font-weight:normal" x="640" y="-290">
    <tspan x="640" y="-290">Mon</tspan>
  </text>
  <text font-size="5.64436" style="fill: #000000;text-anchor:middle;font-family:sans-serif;font-style:normal;font-weight:normal" x="720" y="-290">
    <tspan x="720" y="-290">Wed</tspan>
  </text>
  <text font-size="5.64436" style="fill: #000000;text-anchor:middle;font-family:sans-serif;font-style:normal;font-weight:normal" x="680" y="-290">
    <tspan x="680" y="-290">Tue</tspan>
  </text>
  <text font-size="5.64436" style="fill: #000000;text-anchor:middle;font-family:sans-serif;font-style:normal;font-weight:normal" x="760" y="-290">
    <tspan x="760" y="-290">Thu</tspan>
  </text>
  <text font-size="5.64436" style="fill: #000000;text-anchor:middle;font-family:sans-serif;font-style:normal;font-weight:normal" x="800" y="-290">
    <tspan x="800" y="-290">Fri</tspan>
  </text>
  <text font-size="5.64436" style="fill: #000000;text-anchor:middle;font-family:sans-serif;font-style:normal;font-weight:normal" x="840" y="-290">
    <tspan x="840" y="-290">Sat</tspan>
  </text>
  <text font-size="5.64436" style="fill: #000000;text-anchor:middle;font-family:sans-serif;font-style:normal;font-weight:normal" x="880" y="-290">
    <tspan x="880" y="-290">Sun</tspan>
  </text>
</svg>
